<?xml version="1.0" encoding="UTF-8"?><svg id="Layer_2" xmlns="http://www.w3.org/2000/svg" viewBox="0 0 100.36 101.45"><defs><style>.cls-1{fill:white;}</style></defs><g id="Layer_1-2"><g><g><path class="cls-1" d="M61,86.6c-.09,.23-.16,.47-.23,.7l-.17,.57c-.05,.17-.09,.33-.16,.45-.15,.27-.34,.52-.53,.77l-.09,.12c-1.21,1.64-2.87,2.85-5.38,3.92-.31,.13-.59,.2-.85,.2-.41,0-.8-.17-1.22-.53-.41-.36-.91-.6-1.4-.83-.5-.25-1.02-.46-1.53-.67l-.27-.1c-.09-.04-.13-.07-.13-.07,0-.01,0-.04,.03-.11,.07-.17,.12-.35,.15-.52,.11-.78-.54-1.15-.75-1.27-.1-.06-.24-.09-.42-.09-.32,0-.51,.12-.55,.35-.05,.24-.08,.51-.1,.82-.72-.44-1.31-1.07-1.75-1.88-.15-.28-.28-.59-.41-.92l-.14-.34c-.18-.43-.54-.71-.91-.71-.12,0-.24,.03-.35,.09-.69,.36-.4,1.03-.3,1.25,.04,.09,.09,.19,.14,.28-.12,.05-.23,.1-.34,.16-.41,.22-.43,.53-.42,.65s.08,.41,.51,.55c.34,.11,.7,.17,1.03,.17h.16c.41,0,.72,.15,1.02,.48,.23,.25,.46,.5,.7,.74-.07,.03-.13,.07-.19,.11-.25,.18-.42,.55-.39,.87,.05,.46,.75,.57,.87,.58,.13,0,.25-.04,.34-.07,.03-.01,.08-.03,.09-.03,.17-.02,.33-.05,.5-.07,.27-.05,.55-.1,.81-.1,.08,0,.17,.01,.25,.02,.45,.07,.91,.28,1.36,.49l.26,.12c.67,.3,1.28,.67,1.83,1.13-.17,.05-.34,.07-.51,.07-.21,0-.42-.04-.63-.11-.21-.08-.41-.18-.63-.29-.22-.11-.43-.21-.65-.3-.08-.03-.17-.04-.26-.04-.12,0-.23,.02-.34,.04-.04,.01-.08,.02-.12,.02l-.55,.06,.23,.5s.04,.09,.05,.14c.05,.12,.1,.26,.19,.38h-.45c-.3,0-.61,0-.91-.01-1.41-.06-2.53-.51-3.44-1.39-.14-.15-.31-.28-.49-.4-.21-.15-.47-.23-.71-.23-.34,0-.62,.16-.75,.42-.29,.64,.22,1.05,.43,1.23,.02,0,.03,.01,.04,.02,0,.01-.01,.01-.01,.02-.13,.12-.22,.26-.3,.38l-.35,.49,.37,.22s.08,.06,.12,.09c.14,.11,.33,.25,.62,.25,.37-.03,.73-.09,1.13-.16,.18-.04,.35-.07,.53-.09l.16-.03c.18-.03,.36-.06,.52-.06h.1c.48,.04,.96,.11,1.44,.18,0,0,.41,.05,.49,.07-.05,.04-.09,.08-.14,.12-.36,.35-.87,.82-.96,1.53-.03,.23,.02,.64,.3,.84,.11,.08,.26,.13,.43,.13s.33-.04,.47-.11c.22-.12,.52-.32,.7-.6,.31-.51,.58-1.05,.78-1.46,.11-.24,.23-.32,.48-.36,2.27-.28,4.23-.8,5.99-1.58,.62-.28,1.21-.61,1.85-.97,.21-.12,.43-.24,.65-.36,.04-.02,.08-.05,.12-.06,.33,.51,.42,.94,.27,1.33-.17,.41-.42,.84-.75,1.29-.22,.29-.46,.56-.7,.83-.28,.32-.57,.65-.83,1.01l-.19,.27c-.24,.36-.45,.67-.82,.79-.18,.06-.35,.2-.44,.37-.16,.28-.46,.41-.81,.57l-.13,.06c-.21,.09-.45,.19-.66,.36,0,.01-.63,.53-.35,.96,.14,.22,.43,.5,.77,.56,.06,0,.11,.01,.16,.01,.21,0,.4-.06,.57-.12l.14-.04c.15-.04,.29-.09,.44-.14,0,.25,.06,.45,.19,.61,.2,.23,.47,.26,.67,.26,.13,0,.3-.02,.5-.05l.3-.03,.11-.72c.06-.33,.11-.64,.13-.96,.02-.3,.01-.59,0-.88-.01-.14-.02-.28-.02-.42,0-.08,0-.14,.02-.19,.24-.89,.79-1.66,1.68-2.36,.04,.08,.08,.16,.13,.25,.13,.24,.27,.52,.46,.76,.31,.43,.61,.72,.92,.94,.2,.15,.44,.22,.71,.22,.4,0,.76-.18,.92-.47,.25-.42,.06-.97-.49-1.42-.46-.37-.94-.78-1.39-1.23-.26-.26-.34-.55-.26-.87,.21-.78,.08-1.48-.42-2.16,.01-.01,.02-.02,.04-.04,.56-.58,1-1.07,1.39-1.56,.33-.42,.66-.89,.99-1.44,.28-.46,.53-.95,.74-1.44,.09-.22,.1-.44,.11-.64,0-.06,0-.13,.01-.2v-.12s-.23-.28-.23-.28l-.22-.09h-.23s-.13,.12-.13,.12c-.02,.02-.04,.04-.07,.06-.09,.08-.22,.19-.29,.37Z"/><path class="cls-1" d="M86.05,81.3c-.06-.03-.12-.06-.23-.12l-.14-.04h-.19s-.39-.01-.39-.01c-.29-.02-.58-.03-.87-.06-.86-.11-1.24-.35-1.45-.91-.22-.62-.73-1.05-1.49-1.24,.36-1.12,.3-2.24,.24-3.32,0-.3-.03-.6-.04-.9-.01-.45-.14-.87-.26-1.28l-.03-.09c-.06-.2-.18-.38-.29-.54-.03-.05-.06-.09-.09-.14l-.18-.3-.51,.22-.13,.1-.04,.12c-.2,.58,.03,1.09,.2,1.47,.05,.09,.11,.19,.17,.29,.04,.06,.11,.16,.12,.19v.42c.04,.75,.07,1.52-.03,2.26-.25,1.93-1,3.79-2.23,5.54-.28,.39-.56,.57-.91,.57-.04,0-.07-.01-.11-.01-.22-.02-.43-.03-.64-.03-1.18,0-2.31,.29-3.37,.6-.1,.03-.17,.05-.21,.05-.02-.03-.04-.09-.07-.2-.07-.24-.24-.85-.86-.93-.13-.02-.27-.03-.42-.03-.38,0-.63,.09-.78,.27-.37,.45-.06,.87,.21,1.15-.12,0-.23,.01-.35,.01-.53,0-.99-.08-1.39-.23-.53-.21-1.06-.5-1.56-.77l-.3-.16c-.24-.13-.47-.2-.69-.2-.3,0-.56,.14-.71,.38-.11,.18-.14,.39-.09,.58,.07,.27,.29,.5,.65,.69l.21,.11c-.07,.09-.13,.18-.18,.28-.13,.26-.14,.52-.02,.72,.11,.17,.3,.27,.52,.27,.08,0,.16,0,.25-.03,.4-.12,.77-.3,1.06-.52,.26-.19,.53-.28,.83-.28,.08,0,.16,0,.24,.02,.35,.05,.7,.11,1.06,.17-.04,.06-.07,.13-.1,.2-.1,.29-.01,.72,.21,.94,.07,.07,.2,.15,.41,.15,.19,0,.41-.06,.56-.15,.16-.09,.26-.23,.34-.35,.03-.04,.06-.09,.1-.12,.08-.08,.16-.16,.26-.27,.19-.2,.39-.41,.59-.51,.5-.24,1.06-.44,1.74-.6,.55-.13,1.1-.19,1.65-.19,.22,0,.45,.01,.68,.03-.29,.34-.6,.54-.98,.62-.18,.04-.35,.07-.53,.11-.28,.05-.56,.1-.84,.18-.24,.07-.37,.25-.47,.4-.03,.04-.06,.08-.09,.11l-.34,.39,.46,.23s.07,.05,.11,.07c.09,.06,.21,.13,.36,.17-1.24,1.03-2.41,1.57-3.65,1.7-.12,.02-.25,.02-.38,.02-.23,0-.47-.02-.72-.03-.22-.02-.44-.03-.68-.03-.3,0-.62,.14-.82,.38-.15,.19-.21,.4-.18,.6,.06,.31,.27,.68,.95,.72,.03,.01,.11,.01,.16,.01,0,.02-.01,.05-.01,.07-.04,.18-.02,.34-.01,.49l.02,.22,.17,.31h.54c.13,.01,.32-.01,.48-.14,.3-.24,.56-.5,.82-.76l.31-.31c.09-.08,.17-.17,.26-.26,.17-.17,.33-.34,.5-.45,.45-.29,.93-.53,1.4-.77,0,0,.25-.12,.28-.14,0,.05-.01,.09-.02,.14-.07,.36-.14,.74-.14,1.12,.01,.88,.48,1.27,.96,1.27,.46-.02,.92-.5,.92-1.27v-.02c0-.51-.07-1.07-.2-1.71-.06-.31,0-.5,.22-.71,.55-.51,1.02-.99,1.45-1.47,1.51-1.67,2.73-3.63,3.64-5.81,.02-.06,.04-.11,.06-.14,.03,.02,.08,.04,.15,.07,.72,.37,1.16,1.23,1.06,2.11-.09,.87-.19,1.76-.21,2.65,0,.12,0,.23,.01,.34,0,.42,0,.75-.21,1.03-.11,.14-.13,.3-.14,.45l-.07,.24c-.11,.36-.21,.72-.33,1.08-.02,.05-.05,.1-.09,.17-.06,.12-.14,.26-.17,.42-.04,.2-.02,.39,0,.54,.01,.06,.02,.11,.02,.16l.03,.41,.41-.04c.05,0,.11-.01,.16-.01h.03c.22,0,.49,0,.71-.16s.35-.39,.48-.61c.04-.07,.08-.13,.12-.19,.03-.04,.07-.1,.12-.16,.27,.33,.6,.51,.97,.51,.15,0,.29-.03,.42-.08,.24-.1,.4-.27,.46-.49,.07-.23,.01-.47-.15-.7-.17-.23-.33-.48-.48-.74l-.21-.33c-.05-.07-.09-.15-.15-.26-.12-.24-.27-.52-.53-.71-.26-.18-.38-.39-.37-.64,.02-.73,.1-1.49,.17-2.24l.03-.2c.33,.15,.66,.3,1,.44,.28,.11,.65,.23,1.05,.23,.27,0,.52-.05,.76-.17,.85-.4,.71-.94,.62-1.16-.13-.27-.4-.42-.63-.54Z"/><path class="cls-1" d="M40.5,86.6c-.75,.38-1.48,.78-2.15,1.18-.22,.13-.41,.31-.57,.48-.07,.06-.14,.13-.2,.19l-.24,.22,.4,.71,.29-.07s.09-.02,.13-.02c.15-.02,.33-.05,.49-.16,.2-.12,.37-.27,.55-.43,.08-.07,.16-.14,.24-.2,.08-.07,.17-.15,.26-.23,.18-.16,.36-.31,.54-.4,2.15-1.11,4.41-1.91,6.72-2.4,.16-.04,.29-.05,.4-.05,.28,0,.46,.09,.64,.32,.77,.99,1.79,1.65,3.1,2.03,.08,.02,.12,.04,.12,.04,0,.02,0,.05-.02,.1-.06,.17-.1,.36-.11,.55-.03,.53,.25,.94,.85,1.2,.08,.04,.18,.05,.29,.05,.54,0,.64-.25,.65-.41,.02-.23,.02-.47,.01-.76,1.08,.55,2.04,1.35,2.85,2.36,.12,.14,.25,.3,.43,.42,.2,.13,.4,.2,.59,.2,.26,0,.5-.12,.67-.34,.13-.17,.39-.64-.2-1.17-.08-.08-.17-.15-.26-.23,.05-.04,.11-.09,.15-.14,.12-.12,.19-.26,.25-.39l.05-.11,.22-.4-.42-.16s-.07-.04-.11-.06c-.12-.06-.28-.14-.54-.14h-.01c-.33,.04-.69,.12-1.06,.24-.11,.04-.22,.06-.32,.06-.17,0-.33-.06-.49-.16-.31-.21-.6-.44-.91-.67,.21-.13,.34-.28,.41-.47,.04-.15,.07-.38-.07-.66-.14-.27-.38-.42-.65-.42-.21,0-.39,.08-.53,.16-.42,.24-.85,.37-1.27,.37-.49,0-.99-.18-1.5-.52-.6-.41-1.06-.83-1.41-1.29,.07-.01,.14-.02,.22-.02,.2,0,.4,.06,.6,.17,.1,.06,.19,.12,.28,.18,.19,.12,.38,.24,.59,.34,.13,.06,.31,.09,.48,.09,.24,0,.41-.07,.52-.21,.13-.16,.18-.34,.15-.52-.03-.21-.16-.37-.28-.47,.36-.07,.71-.1,1.05-.1,.47,0,.93,.06,1.37,.18,.38,.11,.76,.29,1.15,.47,.21,.1,.41,.19,.64,.29,.14,.06,.31,.13,.53,.13,.01,0,.15-.02,.15-.02,.26-.07,.62-.36,.62-.7,0-.31-.19-.61-.38-.77-.11-.09-.23-.17-.34-.23,.03-.06,.06-.12,.08-.19,.08-.26,.07-.57-.04-.79-.09-.2-.31-.31-.61-.31-.14,0-.26,.03-.35,.08-.22,.12-.42,.25-.63,.39-.17,.11-.33,.21-.5,.31-.17,.1-.34,.15-.47,.16-.12,.01-.23,.02-.35,.02-.18,0-.37-.01-.57-.02,0,0-.28-.01-.34-.02,.33-.48,.65-1.06,.6-1.78-.01-.22-.11-.38-.19-.52-.03-.04-.05-.07-.07-.11l-.21-.43-.38,.29s-.06,.04-.11,.06c-.13,.08-.32,.19-.41,.4l-.08,.19c-.18,.43-.37,.87-.44,1.35-.07,.44-.21,.66-.88,.8-1.99,.41-3.99,.89-5.93,1.36l-.17,.04c-.07,.01-.21,.05-.34,.06,0-.06,0-.17,.02-.33,.05-.68,.37-1.26,1.04-1.88l.37-.33c.45-.41,.92-.84,1.35-1.3,.09-.09,.16-.19,.24-.29,.16-.22,.25-.33,.42-.37,.19-.04,.31-.18,.41-.31l.12-.1c.17-.16,.35-.32,.53-.47,.05-.04,.11-.09,.17-.13,.17-.12,.35-.25,.48-.46,.22-.39-.03-.9-.06-.96-.09-.18-.27-.27-.55-.27-.12,0-.25,.02-.35,.05h-.03c.02-.39-.1-.76-.36-1.11l-.28-.38-.38,.39c-.05,.05-.1,.1-.14,.18-.05,.08-.07,.17-.09,.24l-.09,.35c-.11,.46-.23,.92-.34,1.37-.03,.14-.05,.27-.07,.41-.02,.09-.03,.19-.05,.28l-.04,.2c-.03,.17-.06,.32-.11,.44-.26,.57-.69,1.05-1.27,1.41-.01-.09-.01-.19-.01-.29-.02-.35-.03-.71-.08-1.06-.05-.35-.18-.71-.37-.98-.15-.21-.36-.34-.59-.34-.34,0-.62,.26-.68,.63-.06,.29-.05,.63,0,.94,.05,.27,.12,.53,.18,.79,.08,.35,.18,.74,.22,1.12,.03,.25-.02,.55-.14,.76-.39,.7-.53,1.41-.44,2.16-.36,.18-.73,.35-1.1,.52-.38,.18-.77,.36-1.15,.55Z"/><path class="cls-1" d="M11.14,50.79c-.16-.12-.35-.18-.51-.23-.06-.02-.12-.04-.17-.06l-.12-.04-.34,.17-.14,.18-.07,.22,.09,.17s.04,.06,.05,.09c.06,.13,.14,.28,.28,.39,.2,.16,.41,.29,.62,.42l.24,.16c.1,.07,.21,.13,.33,.2,.21,.13,.41,.25,.56,.39,1.7,1.73,3.15,3.62,4.31,5.62,.29,.5,.29,.81,.02,1.2-.62,.88-.91,1.91-.92,3.26,0,.16,0,.32,.01,.33-.04,.03-.21,.05-.38,.07-.12,.02-.7,.12-.93,.53-.15,.26-.36,.93-.05,1.28,.13,.16,.32,.24,.52,.24,.23,0,.44-.1,.64-.23-.25,1.32-.7,2.44-1.37,3.42-.15,.22-.3,.47-.28,.76,.03,.31,.19,.69,.47,.86,.11,.07,.24,.11,.36,.11,.29,0,.54-.19,.73-.55,.06-.12,.13-.25,.19-.38,.07,.05,.14,.09,.22,.13,.13,.07,.32,.12,.47,.12,.21,0,.33-.09,.39-.17,.17-.21,.22-.55,.13-.79-.13-.34-.29-.64-.46-.9-.32-.46-.32-.69-.27-.88,.1-.38,.23-.75,.36-1.15,.06,.04,.12,.07,.19,.09,.11,.04,.23,.06,.35,.06,.23,0,.43-.06,.59-.16,.2-.15,.27-.32,.28-.45,.04-.31-.19-.57-.28-.66-.05-.06-.11-.12-.19-.2-.07-.07-.14-.14-.2-.22-.48-.64-.63-1.3-.46-2.03,.2-.87,.47-1.53,.85-2.07,.16,.31,.19,.6,.09,.93-.07,.23-.16,.57-.18,.93-.01,.21,.07,.38,.14,.52,.01,.04,.03,.08,.05,.12l.19,.54,.44-.38s.07-.05,.13-.1c.1-.08,.24-.17,.34-.31,.28,.54,.51,1.22,.66,1.96,.14,.64,.09,1.32-.14,2.22-.09,.32-.06,.62,.08,.84,.13,.19,.33,.31,.58,.35,.05,.01,.1,.01,.14,.01,.61,0,.77-.6,.83-.83,.02-.06,.03-.13,.05-.2,.05,.01,.11,.02,.18,.02,.21-.02,.52-.08,.75-.27l.03-.02,.08-.13,.05-.12v-.07c.01-.18-.06-.5-.24-.68-.17-.17-.36-.33-.55-.48-.13-.1-.26-.21-.4-.34-.14-.12-.27-.24-.32-.35-.18-.41-.31-.85-.43-1.27,.33,.11,.7,.19,1.08,.19,.33,0,.62-.06,.92-.18,.19-.08,.3-.23,.38-.35,.02-.03,.05-.06,.07-.09l.27-.31-.32-.26s-.05-.04-.07-.07c-.1-.1-.25-.25-.48-.27h-.12c-.37-.04-.75-.07-1.12-.07-.14,0-.28,0-.43,.02-.17,.01-.31,.02-.43,.02-.22,0-.23,0-.52-.49l-.7-1.19c-.82-1.38-1.64-2.76-2.47-4.13-.17-.26-.24-.41-.26-.49,.08-.02,.24-.06,.58-.1,.1-.01,.2-.02,.29-.02,.64,0,1.21,.3,1.7,.59,.14,.08,.27,.16,.44,.27,.62,.39,1.26,.8,2.04,.95,.03,.03,.07,.06,.1,.08l1.89,1.28,.14,.04h.07s.09,.01,.09,.01l.2-.06c.17-.06,.38-.11,.55-.26,.37-.3-.01-.95-.02-.97-.01-.01-.02-.02-.02-.03,.37-.09,.74-.27,1-.74l.29-.53-.76-.08c-.1-.01-.18-.02-.32-.02h-.02c-.42,.02-.83,.05-1.24,.08,0,0-.26,.02-.35,.02-.23,0-.48,.02-.73,.09-.14,.04-.3,.06-.47,.06-.68,0-1.44-.31-1.95-.77,.07-.03,.14-.06,.21-.08,.1-.04,.2-.08,.31-.12,.23-.08,.45-.16,.66-.27,.29-.14,.56-.34,.78-.57,.22-.22,.26-.62,.16-.86-.11-.28-.46-.38-.79-.38h-.01c-.27,.04-.53,.13-.77,.26-.22,.12-.44,.26-.67,.4-.33,.21-.67,.42-1.02,.58-.18,.08-.41,.13-.63,.13-.07,0-.15-.01-.22-.02-.25-.05-.48-.07-.72-.07-.48,0-.93,.1-1.44,.32-.42-.43-.83-.87-1.24-1.31-.48-.51-.96-1.02-1.44-1.51-.33-.34-.71-.62-1.13-.91Z"/><path class="cls-1" d="M30.22,93.63c.02,.38,.17,.8,.4,1.19,.2,.33,.53,.53,.86,.53,.15,0,.29-.03,.43-.1,.53-.28,.48-.82,.46-1.13-.01-.1-.03-.17-.06-.27l-.12-.41c-.08-.3-.16-.59-.22-.89-.11-.64-.15-1.08,.22-1.4,.64-.55,.96-1.22,.99-2.01,1.05-.02,2-.38,2.89-.75l.23-.09c.6-.25,1.2-.49,1.78-.77,.37-.17,.8-.45,.93-1.13l.11-.62-.61,.17c-.07,.02-.14,.03-.21,.04-.16,.04-.35,.07-.51,.19-.21,.14-.4,.31-.6,.49l-.23,.2s-.19,.19-.2,.2c-.25,.07-.49,.16-.74,.24-.64,.22-1.3,.44-1.95,.55-.61,.1-1.24,.16-1.87,.16-1.16,0-2.38-.18-3.63-.54-.68-.19-1.04-.54-1.23-1.22-.16-.55-.35-1.04-.57-1.47-.26-.5-.56-.99-.85-1.46l-.25-.4c-.05-.09-.07-.14-.09-.14,.02-.02,.06-.05,.14-.12,.16-.12,.35-.25,.49-.44,.42-.53,.12-1.12,.01-1.34-.08-.15-.38-.45-.68-.45l-.13,.03-.08,.06c-.19,.16-.39,.35-.58,.57-.31-.86-.4-1.76-.28-2.67,.02-.2,.07-.4,.11-.61,.06-.28,.13-.57,.15-.87,.03-.37-.31-.79-.61-.9-.08-.03-.17-.05-.25-.05-.36,0-.65,.29-.74,.73l-.09,.44c-.08-.03-.15-.05-.23-.06-.07-.01-.15-.02-.22-.02-.32,0-.52,.1-.59,.3-.09,.24-.09,.6,.1,.82,.14,.16,.3,.3,.49,.47,.09,.09,.19,.17,.28,.26,.05,.06,.11,.12,.18,.18,.13,.12,.29,.27,.31,.37,.12,.47,.18,.94,.25,1.44-.12-.03-.23-.05-.34-.05-.34,0-.61,.18-.73,.49-.09,.22-.09,.43,0,.62,.14,.31,.49,.46,.81,.57,.96,.33,1.64,.89,2.01,1.67,.3,.63,.56,1.31,.82,1.97l.23,.6c-.37-.12-.67-.35-.86-.68-.1-.17-.18-.34-.29-.54-.13-.25-.26-.51-.41-.75-.15-.24-.49-.43-.76-.43h-.09s-.06,.02-.06,.02h-.03c-.19,.08-.33,.2-.4,.37-.05,.13-.06,.27-.03,.42-1.11-.65-1.91-1.45-2.44-2.44-.23-.44-.39-.95-.55-1.45-.06-.22-.13-.43-.2-.64-.16-.47-.5-.75-.91-.75-.07,0-.14,.01-.22,.03-.65,.15-.58,.78-.55,1.02v.09c.01,.06,.03,.13,.04,.19-.06-.02-.13-.02-.19-.02-.35,0-.62,.21-.69,.54-.07,.33,.12,.77,.39,.94,.27,.18,.55,.31,.83,.44,.14,.07,.28,.13,.42,.21l.29,.14c.26,.13,.54,.27,.75,.44,.25,.19,.47,.44,.73,.71,.1,.12,.2,.23,.31,.34,.08,.08,.16,.16,.25,.24-.43,.09-.84,.17-1.24,.28-.38,.11-.7,.36-.84,.68-.1,.21-.11,.43-.02,.62,.17,.37,.49,.57,.9,.57,.15,0,.31-.03,.47-.08,.58-.2,1.13-.44,1.61-.72,.2-.11,.36-.17,.51-.17,.13,0,.26,.04,.41,.13,.64,.36,1.33,.74,2.06,1.04,2.4,.98,4.45,1.47,6.43,1.54,.04,.01,.08,.01,.1,.01,0,.03-.01,.08-.02,.14-.13,.8-.59,1.3-1.4,1.55-.38,.11-.77,.22-1.16,.32-.58,.15-1.18,.31-1.81,.53-.32,.11-.62,.21-.9,.21-.12,0-.23-.02-.35-.06-.07-.02-.14-.03-.21-.03s-.13,.01-.27,.03h-.11c-.46,0-.93,0-1.4-.02-.08-.01-.16-.02-.24-.03-.11-.01-.22-.03-.42-.03h0c-.32,.02-.59,.18-.72,.42-.11,.24-.08,.51,.08,.75,.24,.34,.64,.54,.86,.63,.2,.08,.4,.14,.62,.2-.3,.48-.32,.94-.05,1.37,.13,.2,.39,.35,.63,.37h.03c.26,0,.47-.19,.58-.31,.11-.13,.22-.26,.32-.4,.16-.2,.32-.4,.5-.57l.11-.11c.28-.27,.61-.58,.71-1.09,.04-.03,.1-.07,.12-.09,.79-.57,1.67-.86,2.67-.86h.05s-.04,.31-.04,.31c-.06,.41-.11,.83-.08,1.26Z"/><path class="cls-1" d="M8.6,74.43c-.14,.28-.13,.65,.02,1,.14,.31,.37,.52,.62,.59,.07,.02,.14,.03,.22,.03,.25,0,.73-.12,1.05-.95,.19-.5,.41-1.06,.67-1.58,.21-.42,.52-.62,.97-.64,.68-.02,1.27-.36,1.67-.95,.05-.07,.08-.1,.09-.12,.02,.01,.05,.03,.09,.07,.11,.09,.24,.16,.37,.21,.28,.1,.56,.21,.83,.31,.72,.27,1.47,.54,2.24,.77,.53,.16,1.1,.2,1.64,.24l.29,.02c.2,0,.37-.07,.53-.14,.05-.02,.1-.04,.15-.05l.12-.04,.16-.35-.02-.23-.08-.19-.15-.07-.08-.04c-.09-.06-.24-.15-.45-.15-.26,0-.53,.02-.79,.03l-.57,.04c-.06,0-.12,.01-.18,.01-.04,0-.07,0-.09-.01-2.62-.61-4.84-2.08-6.8-4.49-.4-.5-.48-.9-.28-1.39,.51-1.2,.59-2.44,.64-3.7,.01-.1,.02-.38,.05-.43,0,0,.04-.02,.16-.02,.05,0,.11,0,.16,.01,.05,0,.09,.01,.13,.01,.67,0,1.19-.55,1.21-1.28,.01-.3-.1-.47-.19-.57-.12-.12-.29-.19-.48-.19-.06,0-.12,0-.18,.02-.18,.04-.35,.11-.51,.18,.2-.78,.55-1.46,1.06-2.02,.25-.27,.55-.53,.87-.81,.13-.11,.26-.22,.38-.34,.27-.24,.41-.54,.41-.82,0-.22-.09-.41-.25-.55-.17-.15-.36-.22-.55-.22-.31,0-.55,.19-.73,.35l-.22,.21c-.05-.07-.11-.14-.18-.21-.08-.08-.3-.26-.69-.26h-.01c-.37,.05-.52,.53-.5,.77,.04,.3,.09,.7,.21,1.1,.1,.34,.09,.64-.06,.92-.17,.35-.36,.69-.56,1.07-.05-.06-.11-.11-.18-.16-.14-.11-.36-.18-.58-.18-.14,0-.26,.03-.36,.09-.33,.17-.34,.67-.3,.9,.03,.21,.16,.37,.25,.49l.07,.08c.43,.6,.63,1.25,.6,1.91-.01,.46-.05,.99-.16,1.49-.13,.55-.29,1.1-.46,1.67l-.03,.08c-.27-.43-.37-.86-.3-1.34,.05-.42,.11-.87,.13-1.32,.02-.2-.1-.42-.23-.55-.1-.11-.22-.17-.36-.17-.27,0-.53,.19-.66,.36-.01,.02-.02,.03-.03,.05-.1-.23-.18-.46-.25-.68-.35-1.15-.63-2.51-.04-3.88l.11-.25c.1-.22,.19-.44,.28-.67,.11-.32,.09-.68-.05-.95-.12-.21-.29-.36-.5-.41-.08-.02-.15-.03-.23-.03-.51,0-.72,.44-.86,.74-.01,.03-.02,.06-.03,.09-.02-.02-.04-.03-.06-.04-.15-.09-.38-.19-.6-.19-.11,0-.21,.02-.3,.08-.29,.17-.41,.65-.31,.94,.12,.35,.28,.69,.43,.99l.09,.19c.07,.15,.15,.29,.23,.44,.14,.25,.27,.49,.34,.73,.14,.45,.21,.93,.29,1.4,0,0,.07,.44,.08,.48-.08-.05-.15-.08-.23-.11-.5-.19-1.01-.33-1.62-.45-.29,0-.64,.24-.75,.5-.12,.3,.01,.7,.19,.89,.14,.15,.43,.41,.79,.51,.45,.11,.94,.21,1.55,.28,.35,.05,.49,.13,.59,.35,1.32,2.86,3.15,5.31,5.44,7.26,.03,.02,.05,.04,.07,.06-.02,.02-.05,.05-.08,.09-.36,.37-.88,.58-1.44,.58-.31,0-.61-.06-.88-.18-.97-.43-1.84-.78-2.75-1.08-.38-.13-.68-.23-.9-.49-.13-.16-.32-.25-.47-.33-.06-.03-.11-.05-.16-.08l-.18-.12c-.19-.12-.38-.24-.56-.39-.11-.09-.2-.19-.3-.3-.13-.14-.27-.29-.43-.41-.18-.14-.38-.21-.57-.21-.2,0-.38,.07-.52,.21-.15,.16-.22,.38-.21,.64,.02,.37,.21,.71,.4,1.02,.09,.13,.19,.26,.29,.39-.47,.19-.73,.51-.79,.99-.04,.23,.05,.57,.29,.75,.11,.08,.25,.12,.41,.12,.1,0,.2-.01,.31-.04,.2-.04,.4-.1,.6-.15,.18-.05,.35-.09,.52-.13,.1-.03,.21-.04,.31-.05,.28-.03,.59-.06,.84-.25,.18-.13,.37-.18,.62-.18,.12,0,.24,.01,.36,.02,.63,.07,1.23,.29,1.79,.65,.11,.07,.24,.16,.33,.22-.06,.09-.17,.22-.27,.34-.41,.49-.75,1.01-1.02,1.55Z"/><path class="cls-1" d="M18.72,75.06c.13,0,.26-.01,.41-.03,.1-.02,.2-.04,.3-.06,.18-.04,.34-.08,.48-.08,.03,0,.06,0,.09,0,2.38,.3,4.78,.98,7.32,2.08,.42,.19,.54,.47,.61,.91,.1,.61,.28,1.27,.52,1.97,.14,.39,.35,.74,.56,1.07l.12,.21c.07,.12,.15,.24,.17,.24-.02,.03-.13,.12-.23,.21-.11,.09-.25,.22-.35,.38-.18,.28-.32,.75,.08,1.34,.12,.18,.43,.39,.71,.39,.01,0,.15-.04,.15-.04l.08-.08c.18-.18,.35-.39,.52-.64,.51,.96,.71,2.02,.82,2.95,.02,.15,.03,.3,.04,.45,.01,.17,.02,.35,.04,.52,.07,.51,.49,.92,.96,.92h.12c.22-.04,.41-.16,.53-.33,.15-.22,.19-.51,.11-.87l-.06-.26c.08,0,.15-.01,.22-.02,.17-.03,.31-.1,.42-.16,.04-.02,.07-.04,.1-.06l.43-.2-.26-.38s-.04-.06-.06-.1c-.07-.13-.16-.29-.34-.39-.31-.19-.62-.33-.9-.4-.38-.11-.61-.31-.73-.65-.11-.36-.22-.72-.32-1.09h.1c.44,0,.76-.26,.84-.69,.08-.45-.18-.78-.69-.88-.08-.02-.16-.03-.24-.03-.07-.01-.14-.01-.18-.03-.1-.04-.22-.07-.33-.11-.25-.08-.51-.16-.64-.29-.78-.8-1.2-1.83-1.28-3.15,.33,.13,.54,.36,.67,.71l.06,.17c.07,.2,.15,.43,.27,.65,.1,.17,.25,.28,.39,.37,.03,.02,.06,.04,.09,.07l.45,.36,.18-.54s.04-.08,.06-.13c.06-.14,.14-.32,.13-.53,1.06,.57,1.91,1.16,2.42,2.15,.17,.32,.33,.64,.49,.96,.25,.52,.61,.6,.81,.6,.13,0,.27-.04,.41-.11,.63-.32,.39-.98,.31-1.2-.02-.07-.05-.13-.09-.2,.04-.02,.08-.05,.12-.08,.14-.12,.25-.26,.33-.38l.36-.47-.34-.24s-.06-.05-.09-.08c-.12-.1-.27-.24-.49-.27-.19-.03-.39-.03-.6-.03-.15-.01-.3-.01-.45-.03-.28-.03-.49-.09-.66-.18-.24-.13-.47-.32-.7-.49,0,0-.28-.22-.32-.25,.56-.21,1.19-.52,1.58-1.16,.1-.17,.11-.34,.12-.5,.01-.03,.01-.06,.01-.09l.07-.44-.44-.02s-.07-.01-.1-.02c-.09-.01-.17-.02-.24-.02-.13,0-.24,.03-.34,.09-.61,.39-1.1,.74-1.54,1.09-.24,.19-.34,.21-.41,.21s-.14-.02-.22-.07c-.19-.13-.39-.21-.58-.29l-.11-.04c-1.87-.79-3.74-1.57-5.61-2.35-.06-.03-.11-.05-.14-.06,.02-.04,.05-.08,.09-.13,.52-.7,1.17-1.04,2-1.04,1.08,0,2.02-.16,2.9-.51,.05-.02,.12-.03,.2-.03l.74,.02c.37,.01,.73,.02,1.09,.02h.24c.49-.01,.86-.36,.92-.88,.07-.61-.47-.76-.64-.81,.26-.29,.46-.67,.39-1.23l-.09-.64-.68,.46c-.11,.07-.2,.13-.28,.2-.31,.26-.61,.53-.91,.8-.2,.17-.39,.35-.58,.53l-.41,.38c-.06,.06-.13,.13-.21,.17-.54,.35-1.15,.52-1.8,.52-.08,0-.15,0-.23-.01l.13-.2c.2-.3,.4-.6,.57-.91,.15-.25,.25-.56,.31-.92,.05-.28-.13-.65-.39-.78-.08-.05-.18-.07-.29-.07-.16,0-.4,.05-.56,.21-.22,.2-.39,.44-.51,.69-.11,.26-.21,.52-.31,.78-.07,.19-.14,.39-.23,.58-.25,.58-.55,.92-1.01,1.11-.26,.1-.87,.4-1.1,.92-.18,.39-.33,.39-.46,.39-.15,0-.34-.04-.56-.1-.88-.21-1.78-.34-2.65-.47l-.6-.09c-.32-.04-.66-.07-1.05-.07h-.19c-.2,.01-.4,.06-.6,.1-.07,.02-.15,.04-.22,.06l-.65,.13,.42,.51c.28,.35,.65,.52,1.11,.52Z"/><path class="cls-1" d="M75.75,45.43l-.29,.53,.77,.07c.09,.01,.16,.02,.32,.02h.02c.48-.03,.96-.07,1.45-.12,.08,0,.15-.01,.23-.01,.21-.01,.45-.03,.68-.09,.12-.03,.25-.05,.4-.05,.69,0,1.48,.33,1.97,.78-.11,.04-.22,.08-.33,.12-.3,.11-.61,.23-.9,.37-.32,.16-.62,.4-.82,.67-.18,.24-.22,.53-.1,.76,.07,.14,.25,.37,.74,.37h.01c.28-.02,.59-.13,.87-.28,.22-.12,.43-.26,.65-.4,.31-.19,.63-.39,.95-.54,.21-.09,.47-.14,.74-.14,.08,0,.15,0,.22,.01,.25,.03,.49,.05,.72,.05,.54,0,.97-.11,1.36-.36l.08,.08c.27,.36,.58,.73,.94,1.11,.62,.64,1.13,1.18,1.69,1.71,.38,.36,.79,.66,1.19,.93,.16,.12,.34,.16,.5,.2,.05,.01,.09,.02,.13,.04l.12,.04,.33-.19,.24-.34-.14-.23s-.04-.06-.07-.1c-.06-.13-.15-.28-.3-.4-.19-.14-.4-.27-.6-.39l-.27-.17c-.09-.06-.18-.11-.27-.16-.18-.11-.36-.21-.48-.33-1.73-1.73-3.21-3.66-4.41-5.73-.3-.52-.24-.8-.03-1.11,.66-.94,.97-2.07,.95-3.45,0-.14,0-.2-.01-.2,.02-.01,.09-.03,.27-.04,.14,0,.3-.01,.46-.06,.65-.19,.77-.8,.84-1.16,.06-.31-.2-.63-.21-.65l-.08-.07-.18-.11-.16,.04c-.27,.06-.51,.14-.74,.23,.24-1.33,.67-2.44,1.31-3.37,.13-.19,.26-.39,.32-.62,.13-.52-.04-.95-.46-1.13-.11-.05-.23-.08-.34-.08-.46,0-.68,.43-.77,.59-.05,.11-.11,.22-.16,.33-.06-.04-.11-.08-.17-.11-.14-.07-.28-.1-.39-.11l-.54-.12-.06,.42s-.01,.07-.02,.11c-.04,.14-.08,.33-.01,.53,.13,.38,.27,.66,.45,.9,.26,.35,.32,.72,.18,1.17-.08,.27-.17,.54-.28,.85-.2-.15-.4-.23-.6-.23-.23,0-.45,.1-.61,.29-.32,.38-.27,.77,.16,1.15l.07,.07c.58,.57,.83,1.17,.74,1.79-.11,.71-.38,1.44-.64,2.15-.04,.13-.13,.27-.24,.42-.15-.25-.18-.5-.12-.77l.06-.29c.06-.24,.13-.51,.16-.78,.02-.22-.06-.4-.13-.54-.02-.04-.04-.08-.05-.12l-.18-.52-.43,.33s-.07,.04-.12,.07c-.13,.08-.29,.18-.4,.35-.51-1.08-.92-2.25-.65-3.54l.03-.17c.06-.24,.12-.52,.1-.8-.01-.31-.25-.67-.53-.79l-.08-.03-.08-.02h-.04c-.3,0-.59,.25-.7,.38-.17,.19-.21,.45-.24,.65,0-.01-.01-.01-.02-.01l-.19-.04h-.07l-.15,.05c-.17,.04-.37,.1-.53,.25-.28,.26-.11,.77,.07,.97,.15,.15,.31,.29,.49,.44,.1,.08,.21,.17,.31,.27l.12,.11c.16,.15,.32,.3,.41,.46,.12,.23,.2,.51,.27,.79,0,0,.09,.32,.1,.39-.12-.04-.24-.06-.37-.08-.22-.02-.45-.03-.68-.03-.21,0-.43,.01-.64,.04-.26,.03-.43,.21-.58,.35-.03,.04-.06,.07-.1,.1l-.42,.35,.46,.29s.08,.06,.12,.1c.15,.11,.33,.26,.57,.27,.24,.02,.47,.02,.71,.02,.35,0,.71-.01,1.18-.03,.22,0,.3,.07,.38,.2,1.21,2.03,2.43,4.04,3.64,6.06,0,0-.01,0-.01,.01-.31,.11-.61,.17-.91,.17-.35,0-.69-.09-1.02-.25-.58-.29-1.16-.63-1.73-1.01-.27-.19-.58-.28-.86-.37-.36-.12-.67-.22-.87-.49-.08-.1-.18-.14-.25-.17l-1.04-.65-.09-.07c-.08-.05-.18-.13-.31-.18-.13-.05-.26-.08-.39-.08-.34,0-.62,.19-.75,.5-.12,.3,.03,.63,.16,.86-.36,.08-.74,.26-1,.75Z"/><path class="cls-1" d="M75.33,61.48c-.19-.08-.4-.14-.64-.14-.22,0-.43,.05-.65,.14l-.6,.28,.67,.52c.1,.08,.17,.13,.25,.18,.19,.12,1.1,.68,1.1,.68,.07,.04,.14,.09,.21,.15,.17,.12,.36,.26,.59,.34,.58,.18,1,.6,1.39,1.34,.1,.21,.18,.46,.26,.7-.21-.06-.43-.12-.64-.16-.54-.11-1.02-.17-1.47-.19-.32,0-.69,.3-.75,.61-.08,.38,.3,.72,.44,.81,.19,.12,.46,.2,.73,.23,.23,.02,.45,.03,.67,.04,.21,.01,.42,.02,.63,.04,.71,.07,1.23,.21,1.62,.7,.25,.29,.71,.66,1.23,.73,.42,.06,.48,.15,.51,.76,.04,.66,.17,1.33,.29,1.92l.02,.08c.05,.23,.09,.45,.13,.68l.08,.44c.07,.44,.15,.89,.25,1.32,.06,.23,.17,.43,.28,.61,.04,.06,.08,.13,.11,.19l.04,.07,.27,.17,.59-.14,.03-.29s.01-.08,.02-.12c.03-.15,.06-.34,0-.54-.08-.27-.2-.52-.31-.78l-.11-.26c-.03-.06-.06-.12-.09-.19-.04-.07-.08-.15-.09-.2-.46-2.31-.56-4.7-.31-7.29,.07-.79,.25-1.08,.76-1.25,1.19-.39,1.99-1.26,2.62-2.06,.06-.09,.15-.2,.2-.26,.08,.04,.19,.11,.29,.16,.23,.14,.47,.21,.71,.21,.4,0,.76-.19,1.03-.55,.22-.3,.19-.56,.15-.69-.04-.12-.15-.33-.48-.44-.17-.05-.35-.07-.51-.08,.87-.85,1.9-1.5,3.16-2,.17-.06,.37-.15,.53-.29,.41-.35,.49-.82,.22-1.21-.16-.22-.38-.34-.63-.34-.22,0-.41,.09-.54,.16l-.33,.17c-.03-.1-.07-.19-.11-.28-.08-.18-.32-.43-.62-.43s-.58,.28-.63,.53c-.07,.33-.14,.71-.15,1.1-.02,.55-.16,.74-.32,.86-.31,.24-.63,.46-.97,.69-.15-.64-.63-.69-.79-.69-.07,0-.14,.01-.22,.03-.65,.14-.6,.72-.58,.91v.29c.03,.37,.04,.75-.01,1.09-.1,.57-.52,.95-1.03,1.34-.53,.42-1.05,.72-1.59,.92,.03-.34,.18-.6,.48-.83l.12-.09c.18-.13,.37-.28,.53-.47,.02-.02,.5-.61,.22-1-.18-.26-.4-.31-.55-.31-.18,0-.33,.07-.47,.16,.09-.63,.27-1.22,.56-1.81,.32-.65,.8-1.25,1.51-1.9,.25-.23,.38-.51,.37-.79,0-.23-.11-.44-.29-.59-.16-.12-.33-.18-.51-.18-.32,0-.56,.2-.72,.33-.04,.04-.09,.09-.13,.13-.05-.05-.1-.1-.16-.14-.2-.13-.44-.2-.74-.2h-.05l-.14,.05-.11,.07-.05,.06c-.11,.15-.21,.44-.18,.66,.03,.2,.09,.39,.14,.58,.04,.15,.08,.3,.11,.48,.05,.27,.1,.54,.07,.77-.03,.2-.11,.41-.22,.67,0,0-.15,.4-.18,.48-.24-.27-.46-.5-.71-.71-.33-.26-.75-.39-1.04-.46-.06-.01-.13-.02-.18-.02-.24,0-.43,.11-.54,.29-.12,.21-.1,.47,.05,.72,.12,.21,.29,.4,.47,.54,.37,.27,.75,.53,1.13,.76q.45,.28,.4,.81c-.2,2.21-.38,4.43-.55,6.65-.01,.04-.01,.08-.01,.11-.03,0-.05-.01-.08-.02-.83-.26-1.4-.82-1.76-1.72-.3-.74-.69-1.45-1.09-2.16-.04-.07-.08-.14-.14-.22-.14-.21-.21-.33-.19-.49,.02-.19-.07-.34-.16-.51l-.13-.31c-.07-.19-.14-.37-.22-.54-.02-.06-.04-.12-.06-.18-.08-.2-.16-.43-.34-.62-.18-.2-.47-.23-.63-.23-.11,0-.22,.02-.31,.05-.38,.11-.41,.62-.42,.79,0,0,0,.01,0,.02Z"/><path class="cls-1" d="M63.42,78.53c-.25-.29-.55-.61-.9-.86-.16-.12-.35-.14-.48-.14-.18,0-.36,.04-.5,.12-.37,.21-.26,.82-.18,1.01,.12,.27,.35,.49,.5,.63,.21,.18,.42,.35,.63,.53,.26,.22,.52,.44,.77,.68,.24,.22,.36,.49,.39,.84,.04,.73,.33,1.36,.83,1.81,.05,.05,.07,.07,.07,.07,0,.03-.03,.1-.09,.21-.68,1.28-1.38,2.67-2.17,4.24-.17,.35-.32,.81-.04,1.4l.27,.56,.4-.48s.07-.08,.12-.14c.11-.11,.23-.24,.29-.42,.09-.26,.14-.53,.2-.8l.08-.33,.03-.18c.02-.1,.04-.2,.07-.27,1.05-2.2,2.48-4.31,4.36-6.45,.15-.17,.3-.25,.46-.25,.05,0,.11,.01,.17,.03,.51,.17,1.03,.25,1.58,.25,.64,0,1.31-.11,2.11-.33,.11-.03,.25-.07,.34-.09,.05,.08,.12,.23,.17,.33,.12,.24,.38,.57,.72,.71,.14,.06,.35,.12,.57,.12,.35,0,.63-.16,.78-.45,.27-.55-.15-.92-.38-1.1,.43-.08,.87-.12,1.31-.12,.74,0,1.52,.11,2.31,.34,.22,.07,.41,.09,.67,.09h.01c.51-.02,.84-.35,.85-.84,0-.22-.07-.75-.82-.85-.12,0-.25-.03-.37-.04,.02-.11,.04-.22,.06-.33,.02-.17,0-.54-.26-.71-.09-.06-.2-.09-.32-.09-.14,0-.35,.05-.49,.18-.26,.24-.54,.5-.78,.8-.24,.31-.5,.45-.85,.45h-1.11c.09-.28,.1-.52,.02-.72-.08-.19-.25-.34-.47-.41-.1-.03-.2-.05-.29-.05-.47,0-.64,.39-.73,.59-.02,.05-.04,.09-.06,.13-.06,.09-.12,.18-.18,.28-.1,.19-.23,.41-.35,.48-.68,.41-1.39,.61-2.19,.61-.44,0-.91-.06-1.42-.19,.24-.26,.54-.4,.93-.44,.06,0,.13,0,.22-.01,.19-.01,.4-.02,.61-.08,.19-.05,.34-.17,.46-.27,.03-.03,.07-.06,.11-.08l.5-.36-.53-.31s-.07-.05-.12-.08c-.11-.08-.24-.17-.39-.22,.11-.12,.23-.23,.35-.34,1.05-.96,2.07-1.41,3.2-1.42,.23,0,.48-.01,.68-.17,.1-.08,.43-.37,.45-.74,.02-.33-.33-.69-.63-.77-.08-.02-.17-.03-.27-.03-.12,0-.24,.02-.36,.03,.01-.1,0-.22-.07-.35-.15-.26-.35-.43-.6-.53h-.05s-.05-.01-.05-.01c-.25,0-.55,.23-.65,.43-.11,.22-.2,.44-.29,.66-.07,.16-.14,.33-.23,.51-.08,.17-.16,.34-.26,.43-.29,.26-.61,.5-1,.77-.01,.01-.03,.02-.04,.03l-.02-.06c-.09-.46-.17-.9-.3-1.33-.22-.71-.63-.82-.85-.82-.09,0-.18,.02-.27,.05-.45,.16-.43,.95-.37,1.21,.08,.37,.22,.72,.37,1.1l.12,.32c.12,.35,.12,.43,.02,.55-1.04,1.18-2.06,2.37-3.1,3.56l-1.56,1.81-.02-.02c-.58-.74-.71-1.61-.38-2.58,.26-.79,.38-1.62,.36-2.52,0-.09,.04-.21,.08-.35l.6-2.08c.05-.17,.03-.32-.07-.44l-.09-.12c-.1-.15-.24-.34-.44-.45l-.06-.03-.1-.03h-.06c-.32,0-.65,.37-.68,.4,0,.01,0,.01,0,.01-.19-.32-.48-.63-1.01-.73l-.59-.13,.15,.76c.03,.12,.05,.23,.09,.35,.09,.23,.19,.45,.29,.68l.21,.51c.04,.08,.07,.17,.1,.27,.08,.23,.16,.49,.33,.71,.27,.34,.33,.71,.33,1.17,.01,.49-.07,.92-.25,1.32-.17-.21-.33-.41-.5-.59Z"/><path class="cls-1" d="M9.65,44.35c-.15,.26-.19,.7,.01,.97,.18,.25,.53,.28,.67,.28,.1,0,.2-.01,.29-.04,.18-.06,.34-.14,.5-.23,.04,.11,.08,.21,.13,.31,.07,.14,.28,.41,.64,.41,.24-.04,.53-.25,.59-.52,.07-.34,.14-.74,.15-1.14,.01-.52,.16-.7,.28-.79,.32-.26,.66-.49,1.01-.73,.18,.6,.56,.69,.79,.69,.07,0,.14-.01,.22-.03,.73-.18,.6-.85,.55-1.07v-.07c-.16-.82-.03-1.41,.37-1.82,.5-.49,1.11-.91,1.7-1.31l.09-.06c.14-.09,.31-.16,.49-.23-.03,.36-.18,.62-.48,.84-.15,.11-.29,.23-.44,.35l-.17,.15c-.13,.11-.4,.33-.4,.65,0,.12,.03,.31,.21,.48,.08,.06,.21,.14,.42,.14,.17,0,.37-.06,.53-.12-.05,.31-.1,.62-.18,.91-.3,1.06-.91,2-1.81,2.77-.28,.24-.44,.52-.45,.81,0,.23,.09,.45,.26,.62,.14,.13,.32,.2,.52,.2,.3,0,.62-.16,.87-.45,.05,.05,.1,.09,.16,.13,.22,.14,.47,.21,.75,.21h.05l.15-.06,.1-.07,.05-.06c.1-.13,.23-.45,.18-.7-.04-.23-.11-.45-.18-.68-.05-.16-.1-.33-.14-.49-.03-.13-.08-.38-.05-.52,.08-.34,.21-.68,.34-1.01,0,0,.08-.22,.09-.24,.37,.48,.81,.93,1.47,1.13,.07,.02,.15,.03,.24,.03,.1,0,.21-.02,.33-.04,.04-.01,.09-.02,.13-.02l.51-.05-.17-.48s-.02-.07-.03-.13c-.04-.16-.09-.38-.28-.53-.45-.37-.94-.73-1.46-1.07-.35-.23-.36-.26-.33-.66,.2-2.21,.39-4.43,.56-6.65,.01-.1,.02-.16,.02-.21,.05,.01,.1,.03,.18,.05,.8,.27,1.33,.85,1.73,1.86,.22,.55,.51,1.05,.81,1.57,.13,.21,.25,.42,.37,.64l.07,.13c.04,.06,.08,.13,.1,.19,.16,.48,.32,.96,.48,1.44l.19,.59c.08,.21,.22,.29,.29,.32l.14,.05c.16,.06,.35,.14,.62,.14,.29-.01,.48-.3,.55-.82,0-.01,0-.02,.01-.02,.2,.08,.43,.15,.67,.15,.22,0,.43-.05,.64-.15l.56-.25-.6-.52c-.09-.09-.17-.15-.26-.21-.24-.16-.5-.31-.75-.47l-.45-.27c-.06-.04-.12-.09-.18-.13-.16-.12-.33-.25-.56-.31-.72-.23-1.1-.77-1.44-1.52-.07-.16-.13-.33-.18-.5,.32,.09,.65,.18,.97,.25,.27,.05,.57,.07,.92,.07h.32c.34-.01,.6-.37,.66-.6,.06-.3-.17-.66-.41-.77-.3-.14-.6-.23-.87-.27-.27-.03-.54-.05-.81-.08-.37-.03-.76-.06-1.13-.13-.24-.05-.51-.2-.68-.38-.58-.6-1.19-.94-1.89-1.06-.07-.4-.12-.8-.18-1.27-.05-.38-.1-.75-.16-1.12-.14-.87-.29-1.73-.46-2.59-.05-.24-.16-.44-.27-.62l-.04-.09c-.1-.17-.32-.29-.55-.29h-.14s-.05,.04-.05,.04c-.16,.1-.38,.35-.32,.63,.01,.07,.02,.15,.03,.23,.05,.29,.09,.61,.28,.88,.33,.46,.39,.97,.47,1.57l.03,.2c.27,2.07,.31,4.21,.09,6.37-.06,.56-.25,.84-.7,1-1.02,.37-1.88,1.05-2.71,2.14-.03,.05-.11,.15-.16,.21-.07-.03-.17-.08-.26-.12-.25-.14-.54-.21-.8-.21-.08,0-.16,.01-.24,.02-.52,.1-.99,.51-.87,1.09,.11,.58,.63,.64,.93,.65-.83,.81-1.87,1.46-3.17,1.98-.33,.13-.55,.3-.67,.51Z"/><path class="cls-1" d="M.55,41.48c.17,.07,.35,.14,.52,.2,.23,.08,.46,.17,.67,.28l.13,.06c.31,.16,.66,.35,1.1,.35,.05,0,.11,0,.13-.01,.02,0,.07,.02,.19,.11,.72,.51,1.24,1.23,1.62,2.27l-.26,.05c-.46,.09-.93,.19-1.38,.36-.34,.14-.69,.42-.96,.78-.1,.15-.28,.46-.22,.82,.04,.22,.17,.41,.37,.55,.17,.11,.35,.17,.55,.17,.23,0,.47-.08,.74-.26,.55-.35,1.14-.69,1.75-1,.13-.07,.26-.1,.39-.1,.17,0,.34,.05,.51,.17,.39,.26,.82,.39,1.27,.39,.27,0,.55-.05,.83-.15,.01,0,.02-.01,.03-.01,.01,.02,.02,.04,.04,.07,.67,1.48,1.69,2.84,3.22,4.29,.17,.17,.39,.24,.58,.32,.07,.02,.13,.04,.2,.07l.07,.04,.33-.05,.23-.3,.07-.22-.09-.16-.05-.1c-.06-.12-.13-.27-.28-.39-.15-.13-.33-.25-.5-.36-.1-.07-.2-.14-.31-.22l-.2-.14c-.18-.12-.35-.24-.46-.37-1.72-2.01-2.6-4.5-2.7-7.59-.01-.49,.14-.82,.49-1.04,1.14-.73,2-1.74,2.83-2.72,.09-.11,.18-.22,.25-.28,.07,.05,.2,.13,.32,.22,.08,.05,.16,.11,.25,.15,.15,.07,.31,.1,.47,.1,.41,0,.72-.24,.91-.42,.14-.12,.2-.28,.24-.4,.01-.03,.03-.06,.04-.09l.17-.36-.57-.27c-.18-.09-.37-.18-.55-.26,.5-.44,1.15-.76,1.99-.97,.38-.09,.79-.14,1.18-.18,.21-.02,.41-.04,.61-.07,.86-.11,.93-.68,.91-.92-.02-.37-.25-.76-.86-.76-.06,0-.11,0-.17,.01-.13,0-.25,.02-.38,.04-.01-.12-.02-.23-.04-.35-.05-.24-.26-.52-.62-.59-.21,0-.5,.14-.62,.36-.16,.31-.34,.67-.47,1.05-.12,.36-.3,.58-.6,.72l-1.1,.51c0-.08-.02-.17-.04-.25-.08-.33-.45-.58-.78-.61-.29,0-.61,.28-.71,.53-.09,.23-.09,.46-.08,.75,0,.84-.28,1.56-.83,2.15-.42,.44-.9,.89-1.42,1.32-.24,.21-.51,.4-.79,.59,.02-.53,.2-.93,.55-1.28,.07-.07,.14-.13,.24-.22,.17-.16,.37-.34,.54-.55,.14-.19,.17-.4,.19-.58,.01-.05,.01-.1,.03-.15l.13-.58-.59,.1s-.1,.01-.15,.02c-.12,.01-.26,.02-.4,.07,.07-.26,.15-.52,.22-.78,.49-1.55,1.34-2.66,2.62-3.38,.26-.15,.47-.29,.63-.45,.23-.2,.35-.46,.36-.73,0-.23-.08-.44-.23-.59-.12-.12-.29-.19-.51-.19-.24,0-.49,.08-.59,.11-.08,.02-.15,.06-.22,.1,0-.02-.02-.04-.03-.06-.08-.16-.19-.28-.29-.39-.04-.04-.37-.43-.37-.43l-.3,.27s-.07,.06-.11,.08c-.14,.1-.33,.24-.38,.48-.08,.34-.13,.68-.18,1.03-.03,.18-.05,.36-.08,.54-.02,.1-.03,.22-.04,.33-.02,.17-.04,.41-.1,.49-.4,.48-.59,1.02-.78,1.54-.04,.12-.08,.23-.13,.34-.14-.29-.28-.58-.45-.85-.18-.3-.48-.57-.8-.75-.15-.09-.29-.13-.44-.13-.22,0-.42,.09-.56,.25-.15,.18-.21,.43-.17,.7,.03,.22,.13,.63,.39,.96,.33,.4,.71,.76,1.11,1.13,.22,.22,.28,.39,.22,.67-.45,2.03-.57,3.89-.37,5.68,.1,.89,.27,1.8,.41,2.61l.12,.68s.01,.06,.01,.08c-.2,.05-.38,.07-.55,.07-.27,0-.51-.06-.74-.18-.47-.26-.75-.69-1.08-1.17l-.1-.16c-.38-.55-.76-1.09-1.14-1.63l-.62-.89-.15-.46c-.13-.4-.27-.81-.38-1.22-.05-.2-.08-.41-.12-.63-.03-.23-.07-.45-.13-.68-.07-.28-.36-.6-.74-.64-.27,0-.64,.19-.76,.48-.13,.28-.16,.6-.18,.9-.01,.18-.01,.37-.01,.57-.15-.04-.28-.06-.41-.06-.36,0-.66,.14-.89,.4-.13,.16-.28,.48-.18,.76,.12,.29,.43,.45,.52,.49Z"/><path class="cls-1" d="M14.35,20.47c.05,.03,.11,.06,.16,.1,.08,.05,.18,.08,.3,.08,.03,0,.17,0,.17,0,.14,0,.28,0,.43,.02,.31,.01,.63,.02,.93,.07,.63,.11,.97,.24,1.13,.65,.3,.75,.83,1.25,1.63,1.5-.02,.06-.03,.12-.06,.19-.05,.16-.1,.35-.11,.55v.34c-.04,.85-.07,1.73-.04,2.6,.02,.61,.16,1.22,.29,1.81,.04,.23,.16,.41,.27,.57,.04,.06,.07,.12,.11,.17l.03,.06,.26,.17,.59-.15,.02-.28s.01-.07,.02-.13c.02-.13,.05-.3,0-.48-.06-.21-.14-.42-.21-.62-.05-.12-.1-.23-.14-.36l-.08-.23c-.08-.2-.14-.37-.15-.53-.18-2.6,.53-5.08,2.17-7.57,.35-.54,.74-.77,1.32-.77,.11,0,.22,.01,.34,.02,.15,.02,.3,.04,.45,.04,.17,0,.33-.02,.49-.05,.86-.17,1.72-.37,2.57-.58,.09-.02,.16-.03,.16-.05,0,0,.03,.03,.08,.17l.04,.12c.05,.19,.12,.45,.36,.58,.29,.16,.63,.27,1.12,.36,.29,0,.57-.29,.64-.41l.04-.07,.04-.18-.06-.13c-.09-.21-.21-.42-.37-.67,.09-.01,.19-.01,.29-.01,1,0,1.97,.28,2.89,.82,.07,.05,.15,.1,.22,.15,.15,.1,.32,.22,.51,.3,.16,.07,.32,.1,.46,.1,.32,0,.59-.17,.72-.48,.11-.24,.2-.71-.44-1.09-.12-.07-.24-.14-.36-.2,.07-.09,.13-.19,.18-.28,.09-.17,.15-.53-.04-.77-.17-.2-.45-.22-.53-.22-.1,0-.18,.02-.27,.05-.16,.07-.31,.16-.48,.25-.16,.09-.33,.18-.5,.24l-.1,.04c-.3,.12-.59,.23-.88,.23-.37-.01-.74-.08-1.14-.16,.43-.64,.08-1.03-.1-1.17-.15-.12-.32-.19-.49-.19-.25,0-.48,.13-.69,.38-.05,.06-.09,.12-.13,.18-.05,.07-.1,.14-.15,.18l-.27,.24c-.25,.22-.5,.46-.77,.59-.88,.45-1.88,.66-3.15,.66-.23,0-.45-.01-.68-.02,.27-.33,.57-.5,1.04-.62,.16-.05,.34-.07,.51-.1,.24-.04,.49-.08,.73-.15,.24-.08,.39-.26,.51-.4,.04-.04,.07-.09,.11-.12l.44-.43-.57-.23s-.09-.04-.15-.07c-.09-.04-.2-.1-.33-.13,1.1-.88,2.44-1.75,4.12-1.75,.09,0,.19,.01,.28,.01,.13,.01,.26,.02,.39,.04,.2,.01,.4,.03,.62,.04,.31,0,.63-.15,.84-.38,.15-.17,.23-.38,.2-.59-.07-.62-.63-.72-.93-.77-.06-.01-.11-.02-.17-.02,0-.02,0-.03,.01-.05,.03-.17,.01-.34,0-.48l-.02-.22-.18-.31h-.52c-.14-.01-.33,.01-.49,.14-.3,.25-.57,.53-.85,.8l-.33,.33c-.07,.07-.13,.13-.22,.23-.15,.16-.3,.31-.45,.4-.46,.29-.98,.55-1.43,.78,0,0-.22,.11-.25,.13l.03-.12c.11-.51,.26-1.21-.09-1.88-.17-.33-.44-.51-.74-.51-.28,0-.53,.16-.71,.44-.12,.2-.26,.5-.25,.82,.02,.54,.04,1.06,.17,1.57,.11,.43,.04,.68-.28,.97-2.16,1.98-3.83,4.39-4.97,7.16-.04,.1-.07,.15-.08,.17-.03-.01-.09-.03-.18-.09-.75-.45-1.08-1.08-1.03-1.93,.02-.32,.05-.64,.08-.96,.05-.64,.11-1.3,.11-1.97v-.17c-.01-.44-.01-.75,.2-1.05,.1-.13,.13-.28,.15-.4,.01-.03,.02-.07,.02-.09l.13-.42c.1-.33,.2-.66,.31-.98,.02-.08,.06-.16,.09-.24,.06-.12,.12-.25,.15-.38,.08-.29,.04-.56-.11-.77-.14-.18-.35-.28-.57-.28-.13,0-.26,.03-.39,.09-.34,.15-.57,.45-.77,.71-.1,.13-.19,.27-.28,.42-.22-.27-.53-.5-.97-.5-.07,0-.14,.01-.21,.02-.33,.05-.6,.28-.68,.59-.07,.26,.02,.53,.24,.7,.26,.2,.39,.5,.53,.84,.06,.15,.12,.29,.19,.43,.14,.27,.32,.57,.6,.75,.15,.09,.25,.21,.33,.5,.18,.72,.03,1.47-.11,2.19-.03,.13-.05,.25-.07,.37-.16-.06-.31-.13-.48-.21-.14-.06-.28-.13-.42-.19-.34-.13-.73-.27-1.15-.27-.26,0-.5,.05-.73,.15-.85,.38-.75,.92-.66,1.13,.12,.3,.4,.45,.65,.59Z"/><path class="cls-1" d="M96.13,54.86c-.44,.25-.87,.5-1.32,.73-.11,.05-.21,.08-.32,.08-.16,0-.33-.06-.51-.18-.37-.25-.79-.37-1.25-.37-.11,0-.22,0-.33,.02-.11,0-.23,.04-.34,.07-.07,.02-.15,.04-.21,.05-.02-.05-.06-.14-.08-.2-.05-.13-.11-.28-.2-.41-.77-1.11-1.43-2.04-2.12-2.97-.25-.33-.58-.58-.92-.84-.18-.13-.37-.2-.54-.26-.07-.02-.47-.19-.47-.19l-.48,.59,.16,.24,.07,.12c.07,.13,.16,.29,.31,.41,.16,.13,.34,.24,.52,.36,.1,.05,.19,.11,.28,.17l.17,.11c.14,.09,.27,.17,.35,.26,1.75,2,2.67,4.49,2.8,7.64,.03,.55-.15,.93-.57,1.19-.9,.56-1.59,1.3-2.09,1.89l-.27,.31c-.18,.22-.37,.43-.55,.65-.05,.07-.09,.09-.09,.1-.01-.01-.04-.02-.09-.06-.13-.12-.27-.22-.4-.29-.18-.1-.36-.15-.55-.15-.31,0-.6,.14-.88,.4-.17,.17-.32,.55-.29,.82l.07,.16,.11,.07c.24,.15,.49,.27,.74,.37-.2,.17-.44,.33-.73,.48-.88,.45-1.83,.69-2.9,.73-.38,.01-.67,.13-.86,.34-.14,.18-.21,.41-.18,.64,.05,.34,.3,.71,.89,.71,.09,0,.2,0,.32-.03l.22-.04c0,.12,.02,.24,.03,.36,.03,.22,.21,.55,.58,.59,.21,0,.5-.1,.62-.33,.19-.33,.36-.64,.46-.99,.13-.42,.32-.67,.64-.81l1.09-.5c0,.06,.02,.12,.04,.19,.07,.27,.37,.65,.74,.66,.33,0,.67-.3,.78-.58,.08-.21,.07-.44,.06-.62v-.16c.01-.84,.26-1.5,.74-1.96,.59-.57,1.24-1.11,1.87-1.63,0,0,.3-.24,.41-.33-.03,.56-.27,1.02-.74,1.42l-.08,.07c-.18,.15-.39,.33-.54,.55-.12,.19-.14,.39-.15,.56-.01,.05-.01,.09-.02,.14l-.09,.53,.54-.07s.08-.01,.14-.01c.12-.01,.27-.01,.42-.07-.04,.15-.08,.3-.12,.44-.5,1.68-1.27,2.79-2.41,3.51l-.24,.15c-.2,.12-.39,.23-.57,.37-.27,.19-.46,.53-.49,.86-.01,.24,.06,.45,.2,.59,.17,.17,.38,.26,.59,.26,.28,0,.51-.13,.72-.27v-.02s.03,.06,.05,.09c.07,.14,.28,.49,.66,.59h.09c.32,.01,.66-.37,.73-.62,.08-.33,.13-.66,.18-.98l.05-.33c.03-.13,.04-.28,.05-.46,.01-.24,.03-.5,.11-.61,.4-.55,.62-1.13,.82-1.69l.08-.2c.23,.4,.44,.79,.7,1.16,.14,.22,.46,.58,.91,.58,.17,0,.35-.06,.5-.17,.2-.14,.32-.34,.36-.57,.04-.28-.06-.61-.27-.9-.29-.39-.68-.9-1.15-1.3-.31-.27-.39-.51-.32-.95,.14-.89,.32-2.08,.38-3.28,.1-1.8-.09-3.63-.56-5.45-.02-.07-.03-.12-.03-.15,.03-.01,.08-.03,.17-.04,.13-.02,.25-.03,.37-.03,.53,0,.95,.2,1.28,.61,.23,.28,.43,.57,.63,.89l.17,.24c.13,.2,.26,.4,.44,.67,.27,.42,.56,.87,.88,1.28l.06,.08c.19,.25,.29,.38,.29,.59s.08,.42,.16,.61c.02,.04,.17,.47,.17,.47,.08,.21,.16,.43,.22,.65,.04,.13,.06,.26,.09,.42,.03,.21,.06,.42,.13,.62,.11,.34,.36,.55,.68,.55,.18,0,.37-.07,.54-.21,.46-.36,.45-.85,.44-1.21v-.54c.14,.03,.28,.05,.41,.05,.35,0,.65-.14,.87-.4,.16-.19,.24-.5,.18-.74-.05-.21-.22-.37-.51-.5-.16-.06-.31-.12-.47-.18-.22-.08-.44-.16-.64-.26l-.18-.1c-.3-.17-.65-.35-1.08-.35-.07,0-.15,0-.17,.02,0,0-.03-.02-.13-.08-.77-.55-1.33-1.31-1.67-2.27,0-.02-.01-.03-.01-.05,.02,0,.3-.07,.3-.07,.43-.1,.87-.2,1.31-.31,.55-.16,.94-.51,1.08-1.01,.02-.07,.19-.7-.13-1.04-.22-.24-.56-.24-.84-.24h-.29v.03c-.11,.04-.2,.12-.29,.19l-.49,.28Z"/><path class="cls-1" d="M81.04,28.35c-.19,.01-.36,.06-.53,.11-.05,.02-.1,.04-.16,.05l-.3,.08v.75s.27,.09,.27,.09c.05,.02,.09,.04,.14,.06,.14,.06,.32,.13,.52,.13,.26,0,.52-.03,.79-.06l.47-.06s.04-.01,.1-.01l.29,.08c.52,.16,1.06,.32,1.56,.52,1.81,.71,3.42,1.95,5.06,3.91,.41,.49,.48,.93,.25,1.56-.22,.6-.35,1.09-.42,1.55-.08,.55-.12,1.1-.15,1.64l-.04,.52c-.01,.19-.03,.25-.01,.25-.02,.01-.07,.02-.23,.02h-.29c-.06,0-.11,.01-.17,.02-.75,.14-.92,.85-.97,1.09-.06,.25,.08,.6,.17,.71l.04,.06,.17,.11,.16-.02c.24-.03,.49-.08,.8-.16-.21,.82-.55,1.48-1.03,1.99-.26,.28-.55,.54-.82,.78-.16,.15-.33,.3-.49,.45-.65,.62-.3,1.14-.18,1.29,.21,.24,.43,.29,.59,.29,.3,0,.54-.18,.71-.35,.08-.07,.16-.14,.24-.22,.07,.09,.14,.17,.22,.25,.14,.14,.36,.24,.55,.24h.08s.06-.02,.06-.02h.03c.28-.11,.45-.45,.43-.7-.01-.18-.04-.35-.07-.52-.03-.14-.05-.29-.06-.43-.01-.1-.02-.21-.04-.31-.03-.26-.06-.53,0-.71,.15-.41,.37-.81,.59-1.21,.07,.08,.14,.15,.22,.22,.15,.12,.34,.15,.48,.15,.18,0,.35-.05,.48-.13,.36-.23,.26-.82,.26-.84-.03-.18-.13-.31-.19-.4-.02-.02-.05-.06-.06-.08-.07-.15-.14-.3-.21-.45-.17-.36-.35-.74-.45-1.11-.16-.61-.02-1.27,.13-1.92,.03-.16,.07-.31,.1-.46,.08-.42,.22-.84,.39-1.32,.29,.49,.38,.98,.27,1.53-.05,.29-.11,.64-.1,1,0,.22,.1,.39,.19,.53,.02,.04,.04,.07,.06,.11l.23,.49,.4-.37s.07-.06,.11-.09c.09-.07,.19-.15,.28-.27,.13,.37,.25,.73,.37,1.1,.44,1.47,.35,2.77-.28,3.98-.08,.16-.15,.34-.2,.54-.09,.32-.02,.69,.16,.95,.14,.2,.33,.31,.61,.33,.6,0,.81-.55,.89-.73,.01-.03,.02-.06,.03-.09,.13,.13,.32,.27,.58,.27,.13,0,.26-.03,.38-.1,.19-.11,.6-.45,.26-1.17,0,0-.7-1.4-.75-1.5-.11-.22-.22-.42-.28-.64-.15-.57-.26-1.18-.35-1.72,0,0-.04-.19-.04-.23l.14,.08c.32,.17,.66,.34,1.02,.47,.19,.07,.38,.1,.56,.1,.44,0,.79-.21,.92-.55,.08-.21,.06-.44-.05-.67-.15-.3-.46-.55-.84-.66-.57-.18-1.16-.27-1.71-.35-.34-.04-.46-.16-.56-.35-.76-1.55-1.54-3.05-2.65-4.35-.65-.76-1.36-1.47-2.05-2.16-.23-.23-.76-.76-.79-.79,.03-.04,.06-.07,.08-.09,.37-.37,.87-.57,1.42-.57,.33,0,.67,.07,.98,.21,.59,.26,1.21,.49,1.82,.71,.36,.12,.71,.25,1.05,.39,.16,.06,.33,.17,.49,.28l.11,.08c.06,.04,.12,.09,.18,.14,.14,.12,.32,.27,.55,.34,.29,.09,.52,.25,.78,.56,.19,.23,.39,.45,.64,.63,.17,.12,.45,.21,.64,.21,.2,0,.32-.08,.38-.15,.19-.21,.36-.57,.33-.91-.04-.28-.21-.52-.35-.7l-.05-.08c-.1-.12-.19-.25-.3-.37,.49-.21,.83-.69,.81-1.18-.01-.42-.34-.76-.73-.76-.14,0-.27,.04-.39,.12-.26,.18-.56,.22-.91,.26-.1,0-.2,.02-.3,.03-.29,.04-.55,.15-.8,.25-.11,.04-.21,.08-.32,.12l-.11,.03c-.08,.04-.14,.06-.25,.06-.91,0-1.76-.29-2.59-.89-.01,0-.02-.01-.02-.01,0-.01,.15-.18,.15-.18,.34-.38,.68-.77,.96-1.22,.25-.42,.23-.98,.21-1.2-.04-.34-.41-.86-.83-.86-.3,.02-.55,.22-.75,.38l-.11,.08c-.16,.12-.19,.29-.22,.43l-.21,.48c-.17,.42-.36,.85-.57,1.25-.16,.3-.37,.46-.65,.48-.84,.04-1.49,.39-2.02,1.05-.77-.49-1.61-.75-2.48-1.02-.18-.05-.37-.11-.55-.17-.82-.27-1.48-.39-2.12-.39-.08,0-.15,0-.24,.01Z"/><path class="cls-1" d="M61.55,14.88s-.07,.09-.11,.14l-.08,.09,.04,.37,.2,.37,.29-.05s.08-.02,.12-.02c.14-.02,.33-.03,.49-.15,.24-.16,.46-.35,.68-.54l.23-.18s.09-.09,.14-.14c.02-.02,.04-.05,.02-.05,.22-.07,.44-.15,.71-.24,.59-.21,1.21-.43,1.81-.54,.71-.13,1.43-.19,2.14-.19,1.23,0,2.48,.19,3.71,.57,.57,.18,.84,.41,.95,.79,.36,1.27,.96,2.5,1.84,3.77,.05,.07,.06,.11,.07,.11-.01,.01-.04,.04-.11,.09-.16,.09-.34,.21-.49,.4-.29,.37-.31,.84-.05,1.37,.11,.22,.44,.44,.73,.44,.01,0,.13-.03,.13-.03l.07-.05c.2-.16,.39-.35,.55-.55,.16,.44,.26,.89,.31,1.39,.08,.75,0,1.53-.25,2.41-.09,.33-.06,.66,.08,.9,.11,.19,.29,.33,.49,.38,.07,.01,.14,.02,.2,.02,.25,0,.69-.12,.84-.93l.05-.23,.15,.03c.06,.01,.11,.01,.17,.01,.09,0,.18,0,.26-.01l.62-.05-.11-.46s-.02-.07-.03-.13c-.02-.16-.05-.35-.19-.52-.21-.27-.46-.5-.73-.66-.33-.21-.52-.48-.57-.85-.06-.37-.1-.75-.14-1.12,.07,.01,.15,.02,.23,.03,.3,0,.7-.2,.82-.5,.13-.33-.11-.77-.32-.94-.19-.14-.4-.22-.59-.28-.06-.02-.12-.04-.17-.07-.81-.31-1.39-.84-1.73-1.55-.34-.71-.64-1.47-.93-2.2l-.06-.15c-.03-.07-.05-.14-.07-.21,.5,.17,.85,.52,1.09,1.05l.04,.1c.11,.23,.22,.5,.4,.73,.01,.01,.42,.52,.81,.52h.08s.08-.03,.08-.03l.05-.02c.41-.19,.43-.54,.36-.82,1.65,1.06,2.6,2.26,3.01,3.76l.07,.28c.05,.22,.1,.45,.18,.66,.15,.38,.49,.64,.85,.64,.12,0,.23-.02,.33-.07,.4-.19,.45-.81,.45-.99,0-.11-.01-.21-.03-.31h.03c.17-.02,.33-.08,.45-.13l.55-.19-.15-.38c-.02-.05-.03-.1-.05-.15-.05-.19-.11-.45-.35-.58-.33-.19-.68-.35-1.05-.52-.18-.09-.37-.18-.62-.3-.2-.1-.42-.21-.56-.34-.38-.34-.74-.71-1.1-1.08,0,0-.27-.27-.29-.3l.18-.03c.41-.08,.84-.17,1.25-.3,.57-.17,.86-.63,.74-1.13-.07-.29-.27-.62-.89-.62h-.21c-.79,.03-1.41,.43-2.01,.81-.14,.09-.26,.13-.38,.13-.1,0-.22-.03-.35-.1l-.18-.1c-.6-.34-1.22-.68-1.87-.95-2.46-1.02-4.53-1.51-6.51-1.56-.04,0-.08,0-.08,0,0-.02,0-.05,0-.1,.08-.78,.47-1.29,1.22-1.54,.48-.15,.97-.28,1.46-.42,.51-.13,1.04-.27,1.56-.45l.16-.05c.3-.11,.59-.21,.86-.21,.12,0,.23,.02,.35,.06,.07,.03,.14,.04,.23,.04,.06,0,.13-.01,.19-.02h.09s.36-.03,.36-.03c.23-.01,.46-.02,.68-.02h.13c.07,0,.16,.02,.27,.05,.13,.03,.27,.06,.51,.06h.01c.22-.01,.4-.11,.56-.2,.06-.03,.11-.05,.15-.07l.37-.17-.16-.36c-.03-.05-.04-.11-.07-.17-.06-.19-.14-.42-.33-.58-.19-.17-.43-.23-.64-.28-.06-.02-.12-.03-.17-.05-.12-.04-.24-.07-.36-.11,.39-.61,.23-1.09,.07-1.34-.13-.21-.38-.36-.7-.41-.24,0-.57,.19-.64,.46-.08,.25-.27,.43-.51,.63-.1,.09-.2,.18-.29,.27-.2,.21-.35,.44-.51,.7-.06,.09-.12,.19-.19,.29-.06,.09-.13,.18-.19,.22-.74,.55-1.62,.84-2.71,.88,0-.07,.02-.15,.03-.22,.03-.2,.07-.43,.06-.69-.01-.46-.02-.99-.15-1.48-.14-.55-.71-.92-1.15-.92-.1,0-.2,.02-.28,.05-.47,.19-.65,.74-.47,1.45,.13,.57,.27,1.15,.36,1.73,.08,.49-.04,.82-.39,1.1-.56,.44-.84,1.08-.83,1.9h-.1c-.91,0-1.72,.29-2.39,.56-.16,.07-.33,.13-.52,.19-.24,.08-.47,.16-.7,.27-.54,.24-1.06,.51-1.54,.79-.19,.11-.32,.29-.42,.43Z"/><path class="cls-1" d="M39.73,12l-.17,.23c-.48,.63-.97,1.28-1.22,2.09-.06,.21-.09,.42-.11,.63l-.1,.6,.63,.18,.02-.02h.05l.11-.06c.46-.26,.72-.74,.74-1.39,.03-.49,.29-.86,.58-1.29l.07-.09c1.37-1.97,3.37-3.42,6.13-4.41,.12-.05,.24-.07,.36-.07,.34,0,.66,.19,.97,.4,.66,.45,1.36,.83,1.95,1.14,.4,.21,.82,.37,1.23,.54l.25,.1c.09,.03,.12,.06,.12,.06,0,0,0,.05-.04,.14-.1,.24-.15,.51-.14,.76,.03,.51,.66,1.14,1.16,1.14,.08,0,.17-.02,.24-.05,.59-.28,.53-.83,.48-1.14,.64,.4,1.16,.94,1.54,1.61,.18,.3,.32,.64,.47,.97,.1,.23,.2,.46,.31,.68,.18,.36,.47,.57,.8,.57,.14,0,.27-.04,.4-.1,.21-.11,.65-.43,.31-1.19-.05-.12-.11-.23-.17-.35,.12-.04,.23-.09,.33-.14,.19-.09,.46-.35,.4-.66-.04-.23-.24-.5-.51-.57-.3-.06-.64-.14-.99-.14h-.11c-.43,0-.75-.14-1.05-.46-.24-.26-.48-.52-.73-.77,.07-.03,.13-.07,.19-.11,.2-.14,.27-.36,.33-.54,.02-.04,.03-.09,.05-.13l.17-.37-.51-.23c-.13-.06-.29-.14-.57-.17-.16,0-.29,.05-.4,.09l-.07,.03c-.36,.12-.72,.19-1.07,.19-.44,0-.88-.1-1.3-.31-.61-.29-1.24-.64-1.88-1.03-.22-.13-.43-.3-.66-.47,.16-.04,.32-.06,.48-.06,.45,0,.91,.14,1.46,.44,.03,.02,.07,.04,.11,.07,.13,.08,.28,.18,.5,.22h.12c.14,0,.26-.02,.37-.05,.05-.01,.09-.02,.13-.03l.52-.08-.22-.47-.05-.13c-.05-.13-.1-.26-.19-.39,.22-.01,.45-.02,.68-.02,1.85,0,3.26,.52,4.31,1.61,.11,.11,.25,.22,.42,.31,.17,.09,.36,.14,.55,.14,.29,0,.56-.13,.73-.36,.13-.18,.35-.64-.28-1.2-.04-.03-.08-.07-.12-.1,.02-.02,.04-.03,.06-.05,.1-.1,.44-.44,.36-.81-.06-.33-.49-.6-.8-.6-.32,.01-.63,.06-.93,.1l-.35,.05c-.14,.02-.29,.04-.44,.06-.27,.05-.56,.09-.89,.09-.43-.01-.87-.07-1.31-.14,0,0-.52-.07-.56-.08,.3-.32,.59-.63,.85-.97,.58-.75,.27-1.25,.02-1.48-.13-.13-.31-.2-.52-.2-.36,0-.73,.22-1,.59-.36,.5-.64,1.05-.87,1.53-.16,.32-.28,.43-.54,.45-1.74,.17-3.51,.6-5.27,1.29-.88,.35-1.72,.81-2.53,1.25,0,0-.78,.43-.8,.43-.01-.01-.02-.03-.04-.06-.35-.61-.38-1.14-.1-1.65,.17-.32,.33-.56,.49-.75,.2-.25,.41-.5,.63-.74,.35-.41,.71-.82,1.04-1.27l.17-.25c.25-.37,.47-.68,.85-.81,.17-.06,.32-.19,.41-.33,.19-.34,.54-.49,1-.67,.28-.11,.5-.24,.67-.39,.16-.15,.44-.51,.33-.85-.09-.28-.41-.59-.75-.61h-.1c-.31,0-.61,.08-.88,.15-.12,.03-.25,.07-.37,.11-.03-.53-.39-1.01-.87-1.15-.08-.02-.16-.03-.23-.03-.25,0-.49,.11-.63,.3-.12,.17-.16,.39-.1,.6,.1,.31,.03,.63-.05,.99-.04,.15-.07,.3-.09,.46-.04,.2-.03,.4-.02,.58,.01,.08,.01,.16,.01,.23,0,.08,.01,.17,.01,.26,.01,.13,.02,.27,0,.34-.29,.84-.82,1.54-1.58,2.1-.02,.02-.04,.03-.06,.05-.01-.02-.25-.42-.25-.42-.2-.35-.43-.74-.72-1.09-.27-.32-.71-.51-1.03-.6-.1-.03-.22-.05-.33-.05-.45,0-.79,.27-.85,.67-.04,.29,.07,.63,.32,1.02,.12,.17,.28,.27,.43,.36,.05,.03,.11,.07,.15,.1l.27,.25c.3,.26,.6,.53,.82,.83,.15,.21,.22,.53,.19,.68-.18,.89-.05,1.59,.44,2.24l-.2,.23c-.53,.6-1.08,1.21-1.57,1.87Z"/><path class="cls-1" d="M31.77,21.44c-.1,0-.21-.02-.33-.06-.42-.14-.85-.21-1.32-.21-.35,0-.72,.04-1.12,.12-.29,.06-.58,.13-.88,.2l-.23,.06c-.06,.02-.16,.04-.24,.05-.02-.03-.05-.1-.1-.23-.08-.21-.32-.84-1-.86h-.1c-.53,0-.86,.12-1.01,.37-.32,.54,.14,.94,.36,1.12-.07,.02-.15,.03-.23,.04-.37,.06-.73,.08-1.1,.08-.8,0-1.62-.13-2.43-.4-.15-.05-.29-.08-.43-.08-.3,0-.57,.13-.77,.36-.15,.18-.21,.49-.18,.72l.03,.11,.06,.12,.08,.06c.2,.15,.46,.27,.79,.37,.07,.02,.14,.03,.21,.04-.03,.14-.06,.27-.07,.4-.03,.29,.08,.47,.16,.57,.11,.12,.26,.18,.42,.18,.15,0,.31-.05,.45-.16,.32-.24,.58-.5,.77-.77,.26-.37,.59-.54,1.05-.55h.97c-.02,.07-.04,.14-.04,.21-.03,.31,.14,.69,.38,.87,.12,.1,.26,.15,.4,.15,.2,0,.49-.1,.71-.55,.03-.06,.07-.13,.09-.22,.18-.6,.62-.96,1.38-1.13,.58-.13,1.13-.2,1.68-.2,.41,0,.77,.05,1.09,.16-.24,.26-.48,.38-.77,.41l-.22,.02c-.26,.02-.53,.04-.8,.11-.2,.05-.35,.17-.47,.29-.03,.02-.06,.05-.09,.07l-.46,.34,.48,.31s.08,.05,.12,.09c.11,.08,.25,.18,.42,.24-.05,.04-.09,.08-.14,.12-.82,.74-1.58,1.36-2.59,1.52-.23,.04-.46,.07-.71,.1-.17,.02-.35,.04-.52,.06-.49,.07-.77,.42-.75,.92,.03,.69,.68,.73,.95,.75,.1,0,.2-.01,.32-.04-.01,.12,0,.25,.08,.39,.11,.18,.3,.4,.59,.48h.06s.04,.01,.04,.01c.26,0,.54-.21,.65-.41,.09-.17,.17-.36,.26-.56,.05-.13,.1-.25,.16-.38l.09-.19c.09-.18,.18-.38,.29-.49,.24-.25,.55-.47,.86-.69,0,0,.15-.1,.17-.11,0,.07,.01,.13,.03,.2,.1,.48,.2,.94,.38,1.38,.1,.24,.31,.37,.48,.47,.05,.03,.1,.06,.14,.1l.46,.36,.22-.73c.05-.15,.1-.31,.14-.47,.04-.2-.03-.39-.07-.49-.17-.49-.34-.97-.52-1.45-.09-.23-.05-.28,.01-.35,1.57-1.8,3.13-3.6,4.69-5.41,.56,.74,.72,1.5,.49,2.34-.14,.49-.28,1.02-.39,1.55-.06,.3-.06,.59-.06,.87,0,.44,0,.82-.22,1.13-.07,.1-.08,.19-.08,.25l-.04,.19-.18,.72s-.04,.08-.06,.13c-.06,.14-.16,.34-.1,.56,.08,.32,.27,.62,.5,.79,.12,.09,.25,.14,.38,.14,.36,0,.56-.31,.65-.47,.12,.15,.22,.3,.34,.44,.14,.17,.34,.2,.47,.22l.08,.02,.54,.15-.03-.56v-.09c0-.11,0-.25-.06-.4-.14-.38-.3-.75-.46-1.14l-.12-.28c-.02-.06-.04-.13-.07-.19-.06-.18-.13-.38-.27-.56-.4-.53-.4-1.13-.27-1.86,.03-.2,.1-.41,.2-.66,.01,.02,.22,.27,.32,.4,.19,.24,.38,.47,.58,.69,.19,.2,.45,.38,.72,.49,.08,.04,.17,.06,.27,.06,.17,0,.43-.06,.58-.23,.21-.22,.23-.62,.11-.85-.13-.27-.31-.51-.51-.69-.18-.16-.37-.31-.56-.46-.26-.21-.54-.43-.76-.68-.26-.28-.44-.6-.48-.85-.12-.85-.42-1.49-.94-1.97,.27-.51,.54-1.01,.81-1.51,.28-.52,.56-1.04,.83-1.56,.25-.49,.49-1.03,.73-1.65,.08-.21,.09-.41,.09-.61,.01-.06,.01-.13,.01-.19l.02-.12-.26-.28-.38-.19-.2,.21-.09,.09c-.11,.09-.24,.22-.31,.41-.09,.27-.16,.56-.23,.84l-.07,.32c-.02,.07-.04,.15-.05,.23-.03,.13-.05,.25-.09,.33-1.03,2.11-2.39,4.13-4.16,6.17-.24,.28-.45,.4-.7,.4Z"/><path class="cls-1" d="M53.04,16.35c-.29,0-.5-.11-.71-.38-.7-.89-1.66-1.53-2.95-1.94-.05-.02-.15-.05-.2-.05-.01,0-.02,0-.02,.01-.01-.04,.04-.2,.06-.27,.2-.72,.01-1.19-.63-1.54-.06-.03-.29-.15-.53-.15-.11,0-.21,.03-.3,.08-.26,.15-.38,.54-.34,.81,.01,.1,.03,.2,.06,.31-1.11-.6-2.04-1.37-2.82-2.34-.1-.13-.22-.27-.38-.39-.22-.17-.44-.25-.65-.25-.23,0-.44,.09-.61,.27-.25,.26-.42,.69,.14,1.26,.08,.07,.16,.15,.24,.22-.07,.06-.13,.11-.19,.17-.12,.13-.18,.27-.22,.39l-.04,.1-.17,.37,.37,.16,.05-.11s.04,.02,.05,.03l-.02,.12c.09,.05,.24,.13,.46,.13h.01c.38-.04,.75-.08,1.11-.19,.15-.05,.28-.07,.4-.07,.17,0,.32,.04,.46,.14,.32,.21,.62,.45,.94,.69-.61,.38-.48,.86-.35,1.12,.2,.37,.5,.43,.65,.43,.21,0,.38-.09,.55-.18,.42-.23,.85-.35,1.26-.35,.5,0,1.01,.18,1.52,.53,.58,.41,1.04,.82,1.39,1.28-.07,.01-.15,.02-.22,.02-.18,0-.36-.05-.55-.15-.13-.08-.25-.16-.38-.24-.2-.12-.4-.24-.61-.35-.09-.04-.18-.06-.3-.06-.07,0-.16,.01-.24,.02-.04,.01-.07,.02-.1,.02l-.46,.02,.09,.45s.01,.07,.01,.12c.02,.15,.03,.33,.15,.5,.02,.03,.04,.05,.06,.08-.36,.06-.71,.09-1.07,.09-.3,0-.61-.03-.92-.07-.68-.09-1.37-.36-2.17-.84-.19-.11-.38-.17-.56-.17-.31,0-.57,.16-.73,.46-.15,.29-.2,.72,.42,1.14,.07,.05,.14,.1,.22,.14-.03,.05-.06,.12-.08,.18-.08,.27-.07,.58,.04,.8,.09,.2,.31,.31,.61,.31,.14,0,.25-.03,.35-.07,.21-.12,.41-.25,.65-.4,.12-.08,.23-.16,.36-.23l.13-.08c.13-.08,.29-.17,.38-.18,.14-.01,.28-.02,.42-.02,.26,0,.53,.02,.8,.03h.14c-.34,.5-.64,1.04-.63,1.73,.01,.21,.09,.39,.16,.54,.02,.04,.05,.09,.06,.13l.19,.5,.43-.32s.07-.05,.12-.08c.15-.09,.35-.2,.44-.43,.23-.55,.4-1.05,.52-1.54q.14-.57,.68-.7c2.18-.49,4.35-1,6.53-1.51,.03-.01,.06-.01,.08-.02,.01,.03,.01,.06,.01,.1,0,.7-.24,1.3-.7,1.76-.52,.52-1.02,.96-1.5,1.35-.26,.2-.44,.46-.6,.69-.24,.36-.41,.58-.72,.66-.13,.04-.2,.12-.22,.14l-1.08,.9c-.09,.07-.28,.19-.32,.46-.05,.25-.1,.56,.02,.85,.1,.24,.3,.38,.55,.38,.15,0,.29-.05,.42-.12-.01,.38,.08,.76,.39,1.16l.42,.51,.33-.76c.05-.12,.09-.22,.12-.32,.12-.47,.24-.94,.35-1.41,.04-.2,.08-.39,.11-.58l.06-.31c.02-.07,.03-.14,.04-.22,.02-.14,.04-.26,.08-.35,.26-.61,.69-1.11,1.29-1.48,.02,.4,.04,.77,.09,1.14,.03,.32,.13,.65,.29,1.03,.12,.27,.46,.44,.77,.44,.3-.04,.57-.36,.61-.62,.06-.3,.06-.6,0-.86-.04-.21-.1-.42-.16-.65-.08-.28-.17-.57-.2-.84-.05-.41-.09-.85,.04-1.11,.43-.84,.58-1.56,.48-2.28,.48-.24,.96-.47,1.44-.7l1.5-.72c.53-.27,1.07-.58,1.61-.92,.2-.12,.35-.29,.5-.45l.18-.18,.14-.26-.34-.6-.28,.06s-.09,.02-.14,.02c-.17,.02-.37,.05-.54,.17-.24,.17-.45,.37-.63,.54l-.22,.21s-.09,.09-.15,.14c-.07,.07-.13,.14-.19,.17-2.22,1.18-4.61,2.05-7.12,2.59-.12,.03-.23,.04-.34,.04Z"/><path class="cls-1" d="M82.48,26.92c-.13-.07-.3-.17-.57-.17s-.52,.02-.78,.05l-.28,.03c-.08,.01-.15,.02-.24,.03-.07,.01-.13,.02-.23,.02h-.03c-2.55-.37-5.06-1.1-7.46-2.18-.31-.14-.36-.33-.37-.46-.08-1.32-.52-2.54-1.35-3.73-.07-.1-.08-.15-.08-.15,.01,0,.02-.04,.13-.11,.12-.08,.29-.22,.42-.42,.27-.4,.26-.87-.05-1.37-.13-.23-.49-.38-.67-.38h-.07l-.16,.04-.07,.09c-.18,.2-.35,.41-.48,.64-.32-.58-.55-1.26-.69-2.06-.07-.39-.11-.78-.16-1.18-.02-.23-.05-.46-.08-.69-.07-.53-.47-.93-.95-.93h-.12c-.53,.11-.74,.49-.64,1.13,.02,.07,.04,.2,.05,.32-.11,.01-.22,.02-.32,.04-.16,.03-.59,.19-.6,.55-.01,.23,.12,.55,.36,.69,.28,.16,.62,.34,.99,.45,.39,.12,.61,.33,.73,.71,.06,.22,.2,.68,.3,1.02-.04,0-.07,0-.1,0-.47,0-.8,.3-.84,.76-.01,.21,.02,.69,.69,.82,.18,.04,.37,.08,.56,.09,.44,.03,.75,.18,.92,.44,.33,.52,.7,1.13,.93,1.76,.14,.38,.2,.8,.27,1.25,0,.02,.01,.05,.01,.07-.32-.11-.52-.3-.65-.62-.03-.09-.07-.19-.1-.28-.08-.22-.16-.44-.29-.66-.11-.19-.29-.28-.44-.36-.03-.02-.07-.04-.1-.06l-.45-.28-.15,.5s-.03,.08-.04,.13c-.06,.14-.13,.31-.11,.51-.9-.5-1.89-1.11-2.42-2.15-.12-.23-.23-.46-.34-.69l-.14-.28c-.18-.37-.48-.59-.82-.59-.14,0-.27,.04-.4,.1-.43,.22-.53,.63-.31,1.21,.02,.06,.05,.12,.08,.18-.06,.03-.12,.06-.18,.11-.18,.13-.39,.39-.44,.68-.06,.38,.41,.69,.68,.73,.19,.03,.38,.04,.59,.05,.14,0,.28,.01,.42,.02,.27,.04,.55,.08,.75,.18,.24,.13,.48,.31,.71,.49,0,0,.28,.22,.32,.25-.04,.01-.08,.03-.12,.04-.54,.22-1.15,.54-1.52,1.18-.1,.18-.19,.55,0,.8,.11,.16,.31,.24,.56,.24,.07,0,.14-.01,.2-.02,.21-.04,.43-.14,.6-.26,.4-.3,.8-.62,1.19-.94,.19-.16,.29-.19,.35-.19,.07,0,.14,.03,.23,.07,.58,.31,1.25,.62,2.08,.97,1.02,.42,2.03,.83,3.05,1.24,0,0,1.3,.53,1.32,.54-.01,.01-.02,.02-.03,.04-.42,.62-.96,.99-1.62,1.08-.44,.07-.9,.09-1.35,.11l-.35,.02c-.38,.02-.72,.13-1.05,.24-.32,.11-.62,.21-.91,.21-.12,0-.23-.02-.45-.06-.07,0-.13,.01-.17,.03h-.05c-.29,.01-.59,.02-.89,.03-.03,0-.07-.01-.11-.01-.08-.01-.15-.02-.22-.02-.14,0-.26,.03-.36,.1-.19,.13-.31,.31-.43,.46-.04,.05-.08,.1-.12,.15l-.25,.31,.42,.35c.11,.1,.23,.2,.38,.29,.01,0,.02,.01,.03,.01-.25,.28-.46,.66-.42,1.23l.05,.65,.73-.45c.12-.08,.21-.13,.29-.2,.32-.26,.62-.53,.92-.8,.21-.19,.4-.37,.6-.56l.4-.37c.05-.05,.1-.1,.16-.14,.56-.35,1.17-.53,1.81-.53,.09,0,.17,0,.26,.01-.04,.06-.08,.12-.12,.17-.16,.23-.34,.48-.48,.76-.23,.43-.36,.79-.41,1.13-.04,.24,.02,.46,.16,.62,.13,.15,.31,.24,.52,.24,.19,0,.37-.08,.53-.22,.22-.19,.4-.46,.58-.85,.12-.25,.23-.52,.33-.78,.09-.24,.19-.48,.29-.71,.17-.37,.43-.63,.81-.8,.6-.27,.97-.57,1.14-.92,.2-.43,.37-.43,.51-.43,.16,0,.36,.05,.56,.1,.72,.19,1.47,.28,2.2,.37l.55,.07c.56,.07,1.16,.12,1.96,.16,.18,0,.33-.06,.46-.11,.04,0,.07-.03,.11-.04l.11-.03,.17-.31,.06-.42-.28-.12s-.06-.04-.11-.06Z"/></g><path class="cls-1" d="M62.87,63.37c-.14-3.94-.29-13.67-.32-15.86-.29-1.29-10.59-4.24-10.07,4.78,.76,.26,2.19-.27,2.63-1.2-2.77-5.39,4.28-4.52,5.04-2.87,0,0-2.65,3.46-5.46,7.1h-10.21c.77-.61,1.55-1.48,1.58-2.53,.01-.33,0-15.69,0-15.69,0,0,5.33,.3,6.15,3.22,1.24,4.42-4.98,8.67-5.33,8.91,.53-.26,9.95-4.95,7.66-10.16-2.32-5.28-22.8-6.27-19.78,7.95,.61,.04,2.43-.55,2.65-1.09-1.38-4.05-1.57-8.42,6.48-8.83,0,0,.37,14.18-.07,16.2-.27,1.23-.34,1.95-2.13,2.02l-.82,1.68h12.52c-2.57,3.3-4.95,6.32-5.22,6.54-1.15,.92-4.94,2.95-9.73-4.62-.39,.08-1.89,1.23-2.09,1.77,1.32,2.83,8.03,8.2,12.61,3.65,1.03-1.02,3.55-4.2,5.98-7.34h5.57s-.05,6.2,0,7.39c.14,3.53,5.63,1.25,6.03,1.08-.31,.06-3.57,.74-3.67-2.1Zm-2.36-8.05h-4.28c2.33-3.03,4.28-5.63,4.28-5.63v5.63Z"/></g></g></svg>